<svg width="77" height="101" viewBox="0 0 77 101" fill="none" xmlns="http://www.w3.org/2000/svg">
<path d="M37.9894 3.39062C19.0776 3.39062 3.69141 18.7015 3.69141 37.5208V52.6262H4.73173V37.5208C4.73173 19.2718 19.6507 4.42586 37.9894 4.42586C56.3281 4.42586 71.2471 19.2718 71.2471 37.5208V52.6262H72.2874V37.5208C72.2874 18.7015 56.9013 3.39062 37.9894 3.39062Z" fill="url(#paint0_linear_582_15)"/>
<path d="M37.986 6.08008C20.564 6.08008 6.39062 20.1841 6.39062 37.5208V52.6263H7.43095V37.5208C7.43095 20.7544 21.1385 7.11531 37.986 7.11531C54.8335 7.11531 68.541 20.7558 68.541 37.5208V52.6263H69.5813V37.5208C69.5813 20.1841 55.408 6.08008 37.986 6.08008Z" fill="url(#paint1_linear_582_15)"/>
<path d="M37.9864 8.76855C22.0543 8.76855 9.09375 21.667 9.09375 37.5199V52.6253H10.1341V37.5199C10.1341 22.236 22.6288 9.80243 37.9878 9.80243C53.3468 9.80243 65.8415 22.236 65.8415 37.5199V52.6253H66.8818V37.5199C66.8818 21.6657 53.9199 8.76855 37.9892 8.76855H37.9864Z" fill="url(#paint2_linear_582_15)"/>
<path d="M37.9883 11.458C23.546 11.458 11.7969 23.1496 11.7969 37.5212V52.6267H12.8372V37.5212C12.8372 23.7213 24.1205 12.4932 37.9883 12.4932C51.856 12.4932 63.1393 23.7213 63.1393 37.5212V52.6267H64.1797V37.5212C64.1797 23.1496 52.4305 11.458 37.9883 11.458Z" fill="url(#paint3_linear_582_15)"/>
<path d="M37.9887 14.1475C25.0363 14.1475 14.5 24.6336 14.5 37.5212V52.6267H15.5403V37.5212C15.5403 25.2039 25.6108 15.1827 37.9887 15.1827C50.3666 15.1827 60.4371 25.2039 60.4371 37.5212V52.6267H61.4774V37.5212C61.4774 24.6322 50.9398 14.1475 37.9887 14.1475Z" fill="url(#paint4_linear_582_15)"/>
<path d="M37.9871 19.5244C28.0158 19.5244 19.9023 27.5968 19.9023 37.5207V52.6261H20.9427V37.5207C20.9427 28.1685 28.5889 20.5596 37.9871 20.5596C47.3853 20.5596 55.0315 28.1685 55.0315 37.5207V52.6261H56.0719V37.5207C56.0719 27.5981 47.9598 19.5244 37.9871 19.5244Z" fill="url(#paint5_linear_582_15)"/>
<path d="M37.9876 22.2139C29.5061 22.2139 22.6055 29.0807 22.6055 37.5207V52.6261H23.6458V37.5207C23.6458 29.651 30.0792 23.2491 37.9876 23.2491C45.8959 23.2491 52.3293 29.651 52.3293 37.5207V52.6261H53.3697V37.5207C53.3697 29.0807 46.469 22.2139 37.9876 22.2139Z" fill="url(#paint6_linear_582_15)"/>
<path d="M37.988 24.9023C30.9964 24.9023 25.3086 30.5623 25.3086 37.5197V52.6252H26.3489V37.5197C26.3489 31.1327 31.5709 25.9362 37.9894 25.9362C44.4079 25.9362 49.6298 31.1327 49.6298 37.5197V52.6252H50.6702V37.5197C50.6702 30.5623 44.9824 24.9023 37.9907 24.9023H37.988Z" fill="url(#paint7_linear_582_15)"/>
<path d="M37.9859 27.5918C32.4842 27.5918 28.0078 32.0463 28.0078 37.5211V52.6265H29.0481V37.5211C29.0481 32.6166 33.0573 28.627 37.9859 28.627C42.9146 28.627 46.9237 32.6166 46.9237 37.5211V52.6265H47.9641V37.5211C47.9641 32.0463 43.4877 27.5918 37.9859 27.5918Z" fill="url(#paint8_linear_582_15)"/>
<path d="M37.9864 30.2812C33.9745 30.2812 30.7109 33.5288 30.7109 37.5211V52.6265H31.7513V37.5211C31.7513 34.0992 34.549 31.3165 37.9864 31.3165C41.4238 31.3165 44.2215 34.1005 44.2215 37.5211V52.6265H45.2619V37.5211C45.2619 33.5288 41.9983 30.2812 37.9864 30.2812Z" fill="url(#paint9_linear_582_15)"/>
<path d="M37.9869 32.9688C35.4648 32.9688 33.4141 35.0108 33.4141 37.5192V52.6246H34.4544V37.5192C34.4544 35.5798 36.0393 34.0026 37.9882 34.0026C39.9371 34.0026 41.5221 35.5798 41.5221 37.5192V52.6246H42.5624V37.5192C42.5624 35.0095 40.5103 32.9688 37.9896 32.9688H37.9869Z" fill="url(#paint10_linear_582_15)"/>
<path d="M37.9892 16.835C26.528 16.835 17.2031 26.1142 17.2031 37.5193V52.6247H18.2434V37.5193C18.2434 26.6845 27.1011 17.8688 37.9905 17.8688C48.88 17.8688 57.7376 26.6832 57.7376 37.5193V52.6247H58.778V37.5193C58.778 26.1142 49.4531 16.835 37.9919 16.835H37.9892Z" fill="url(#paint11_linear_582_15)"/>
<path d="M47.8415 60.8732C53.1885 55.538 53.1885 46.8878 47.8415 41.5526C42.4946 36.2173 33.8254 36.2173 28.4784 41.5526C23.1315 46.8878 23.1315 55.538 28.4784 60.8732C33.8254 66.2085 42.4946 66.2085 47.8415 60.8732Z" fill="#E0C6B2"/>
<path d="M37.9876 0.701172C17.5859 0.701172 0.988281 17.2189 0.988281 37.5208V52.6262H2.0286V37.5208C2.0286 17.7892 18.1604 1.7364 37.989 1.7364C57.8175 1.7364 73.9493 17.7892 73.9493 37.5208V52.6262H74.9896V37.5208C74.9896 17.2189 58.392 0.702525 37.9903 0.702525L37.9876 0.701172Z" fill="url(#paint12_linear_582_15)"/>
<path d="M38.954 100.847C59.8882 100.847 76.9196 83.7775 76.9196 62.7969H0.988281C0.988281 83.7775 18.0197 100.847 38.954 100.847Z" fill="#13363A"/>
<defs>
<linearGradient id="paint0_linear_582_15" x1="37.9894" y1="3.39062" x2="37.9894" y2="52.6262" gradientUnits="userSpaceOnUse">
<stop stop-color="#C1AA94"/>
<stop offset="1" stop-color="#C1AA94" stop-opacity="0"/>
</linearGradient>
<linearGradient id="paint1_linear_582_15" x1="37.986" y1="6.08008" x2="37.986" y2="52.6263" gradientUnits="userSpaceOnUse">
<stop stop-color="#C1AA94"/>
<stop offset="1" stop-color="#C1AA94" stop-opacity="0"/>
</linearGradient>
<linearGradient id="paint2_linear_582_15" x1="37.9878" y1="8.76855" x2="37.9878" y2="52.6253" gradientUnits="userSpaceOnUse">
<stop stop-color="#C1AA94"/>
<stop offset="1" stop-color="#C1AA94" stop-opacity="0"/>
</linearGradient>
<linearGradient id="paint3_linear_582_15" x1="37.9883" y1="11.458" x2="37.9883" y2="52.6267" gradientUnits="userSpaceOnUse">
<stop stop-color="#C1AA94"/>
<stop offset="1" stop-color="#C1AA94" stop-opacity="0"/>
</linearGradient>
<linearGradient id="paint4_linear_582_15" x1="37.9887" y1="14.1475" x2="37.9887" y2="52.6267" gradientUnits="userSpaceOnUse">
<stop stop-color="#C1AA94"/>
<stop offset="1" stop-color="#C1AA94" stop-opacity="0"/>
</linearGradient>
<linearGradient id="paint5_linear_582_15" x1="37.9871" y1="19.5244" x2="37.9871" y2="52.6261" gradientUnits="userSpaceOnUse">
<stop stop-color="#C1AA94"/>
<stop offset="1" stop-color="#C1AA94" stop-opacity="0"/>
</linearGradient>
<linearGradient id="paint6_linear_582_15" x1="37.9876" y1="22.2139" x2="37.9876" y2="52.6261" gradientUnits="userSpaceOnUse">
<stop stop-color="#C1AA94"/>
<stop offset="1" stop-color="#C1AA94" stop-opacity="0"/>
</linearGradient>
<linearGradient id="paint7_linear_582_15" x1="37.9894" y1="24.9023" x2="37.9894" y2="52.6252" gradientUnits="userSpaceOnUse">
<stop stop-color="#C1AA94"/>
<stop offset="1" stop-color="#C1AA94" stop-opacity="0"/>
</linearGradient>
<linearGradient id="paint8_linear_582_15" x1="37.9859" y1="27.5918" x2="37.9859" y2="52.6265" gradientUnits="userSpaceOnUse">
<stop stop-color="#C1AA94"/>
<stop offset="1" stop-color="#C1AA94" stop-opacity="0"/>
</linearGradient>
<linearGradient id="paint9_linear_582_15" x1="37.9864" y1="30.2812" x2="37.9864" y2="52.6265" gradientUnits="userSpaceOnUse">
<stop stop-color="#C1AA94"/>
<stop offset="1" stop-color="#C1AA94" stop-opacity="0"/>
</linearGradient>
<linearGradient id="paint10_linear_582_15" x1="37.9882" y1="32.9688" x2="37.9882" y2="52.6246" gradientUnits="userSpaceOnUse">
<stop stop-color="#C1AA94"/>
<stop offset="1" stop-color="#C1AA94" stop-opacity="0"/>
</linearGradient>
<linearGradient id="paint11_linear_582_15" x1="37.9905" y1="16.835" x2="37.9905" y2="52.6247" gradientUnits="userSpaceOnUse">
<stop stop-color="#C1AA94"/>
<stop offset="1" stop-color="#C1AA94" stop-opacity="0"/>
</linearGradient>
<linearGradient id="paint12_linear_582_15" x1="37.989" y1="0.701172" x2="37.989" y2="52.6262" gradientUnits="userSpaceOnUse">
<stop stop-color="#C1AA94"/>
<stop offset="1" stop-color="#C1AA94" stop-opacity="0"/>
</linearGradient>
</defs>
</svg>
