<svg width="78" height="86" viewBox="0 0 78 86" fill="none" xmlns="http://www.w3.org/2000/svg">
<path d="M39.1381 36.6308C59.3543 36.6308 75.741 20.3229 75.741 0.207031H2.53516C2.53516 20.3243 18.9232 36.6308 39.1381 36.6308Z" fill="#13363A"/>
<path d="M39.139 21.4199C18.0744 21.4199 0.9375 38.4743 0.9375 59.4358V75.0321H2.01162V59.4358C2.01162 39.0632 18.6675 22.4888 39.1404 22.4888C59.6132 22.4888 76.2691 39.0632 76.2691 59.4358V75.0321H77.3432V59.4358C77.3432 38.4743 60.2064 21.4213 39.1418 21.4213L39.139 21.4199Z" fill="url(#paint0_linear_544_1240)"/>
<path d="M39.139 24.1963C19.6126 24.1963 3.72656 40.0046 3.72656 59.4354V75.0316H4.80069V59.4354C4.80069 40.5935 20.2044 25.2652 39.139 25.2652C58.0735 25.2652 73.4772 40.5935 73.4772 59.4354V75.0316H74.5514V59.4354C74.5514 40.0046 58.6653 24.1963 39.139 24.1963Z" fill="url(#paint1_linear_544_1240)"/>
<path d="M39.1375 26.9736C21.1495 26.9736 6.51562 41.5359 6.51562 59.4359V75.0322H7.58975V59.4359C7.58975 42.1247 21.7426 28.0425 39.1375 28.0425C56.5324 28.0425 70.6853 42.1261 70.6853 59.4359V75.0322H71.7595V59.4359C71.7595 41.5359 57.1256 26.9736 39.1375 26.9736Z" fill="url(#paint2_linear_544_1240)"/>
<path d="M39.14 29.749C22.6903 29.749 9.30859 43.0666 9.30859 59.4345V75.0307H10.3827V59.4345C10.3827 43.6541 23.2834 30.8165 39.1414 30.8165C54.9995 30.8165 67.9002 43.6541 67.9002 59.4345V75.0307H68.9743V59.4345C68.9743 43.0652 55.5912 29.749 39.1428 29.749H39.14Z" fill="url(#paint3_linear_544_1240)"/>
<path d="M39.14 32.5273C24.2285 32.5273 12.0977 44.5988 12.0977 59.4374V75.0336H13.1718V59.4374C13.1718 45.1891 24.8217 33.5962 39.14 33.5962C53.4584 33.5962 65.1083 45.1891 65.1083 59.4374V75.0336H66.1824V59.4374C66.1824 44.5988 54.0515 32.5273 39.14 32.5273Z" fill="url(#paint4_linear_544_1240)"/>
<path d="M39.1386 35.3027C25.7654 35.3027 14.8867 46.1295 14.8867 59.4359V75.0322H15.9608V59.4359C15.9608 46.7184 26.3585 36.3716 39.1386 36.3716C51.9187 36.3716 62.3164 46.7184 62.3164 59.4359V75.0322H63.3905V59.4359C63.3905 46.1281 52.5105 35.3027 39.1386 35.3027Z" fill="url(#paint5_linear_544_1240)"/>
<path d="M39.145 38.0781C27.3114 38.0781 17.6836 47.6589 17.6836 59.4345V75.0308H18.7577V59.4345C18.7577 48.2477 27.9032 39.1456 39.1464 39.1456C50.3897 39.1456 59.5351 48.2463 59.5351 59.4345V75.0308H60.6092V59.4345C60.6092 47.6589 50.9814 38.0781 39.1478 38.0781H39.145Z" fill="url(#paint6_linear_544_1240)"/>
<path d="M39.1411 40.8545C28.8458 40.8545 20.4688 49.1891 20.4688 59.4355V75.0317H21.5429V59.4355C21.5429 49.7794 29.4375 41.9234 39.1411 41.9234C48.8447 41.9234 56.7393 49.7794 56.7393 59.4355V75.0317H57.8134V59.4355C57.8134 49.1905 49.4378 40.8545 39.1411 40.8545Z" fill="url(#paint7_linear_544_1240)"/>
<path d="M39.1397 43.6318C30.3826 43.6318 23.2578 50.7218 23.2578 59.436V75.0322H24.3319V59.436C24.3319 51.3106 30.9744 44.7007 39.1397 44.7007C47.305 44.7007 53.9474 51.3106 53.9474 59.436V75.0322H55.0216V59.436C55.0216 50.7218 47.8967 43.6318 39.1397 43.6318Z" fill="url(#paint8_linear_544_1240)"/>
<path d="M39.1383 46.4082C31.9195 46.4082 26.0469 52.2521 26.0469 59.4355V75.0318H27.121V59.4355C27.121 52.8409 32.5126 47.4757 39.1397 47.4757C45.7667 47.4757 51.1584 52.8409 51.1584 59.4355V75.0318H52.2325V59.4355C52.2325 52.2521 46.3599 46.4082 39.1411 46.4082H39.1383Z" fill="url(#paint9_linear_544_1240)"/>
<path d="M39.1383 49.1846C33.4577 49.1846 28.8359 53.7838 28.8359 59.4365V75.0327H29.9101V59.4365C29.9101 54.3726 34.0495 50.2534 39.1383 50.2534C44.227 50.2534 48.3665 54.3726 48.3665 59.4365V75.0327H49.4406V59.4365C49.4406 53.7838 44.8188 49.1846 39.1383 49.1846Z" fill="url(#paint10_linear_544_1240)"/>
<path d="M39.1368 51.9619C34.9946 51.9619 31.625 55.315 31.625 59.437V75.0332H32.6991V59.437C32.6991 55.9039 35.5878 53.0308 39.1368 53.0308C42.6859 53.0308 45.5746 55.9053 45.5746 59.437V75.0332H46.6487V59.437C46.6487 55.315 43.2791 51.9619 39.1368 51.9619Z" fill="url(#paint11_linear_544_1240)"/>
<path d="M39.1354 54.7354C36.5315 54.7354 34.4141 56.8438 34.4141 59.4336V75.0299H35.4882V59.4336C35.4882 57.4312 37.1246 55.8028 39.1368 55.8028C41.1491 55.8028 42.7855 57.4312 42.7855 59.4336V75.0299H43.8596V59.4336C43.8596 56.8424 41.7408 54.7354 39.1382 54.7354H39.1354Z" fill="url(#paint12_linear_544_1240)"/>
<path d="M39.1402 85.3741C47.5731 85.3741 54.4093 78.5713 54.4093 70.1797C54.4093 61.7881 47.5731 54.9854 39.1402 54.9854C30.7073 54.9854 23.8711 61.7881 23.8711 70.1797C23.8711 78.5713 30.7073 85.3741 39.1402 85.3741Z" fill="#E0C6B2"/>
<defs>
<linearGradient id="paint0_linear_544_1240" x1="39.1404" y1="21.4199" x2="39.1404" y2="75.0321" gradientUnits="userSpaceOnUse">
<stop stop-color="#C1AA94"/>
<stop offset="1" stop-color="#C1AA94" stop-opacity="0"/>
</linearGradient>
<linearGradient id="paint1_linear_544_1240" x1="39.139" y1="24.1963" x2="39.139" y2="75.0316" gradientUnits="userSpaceOnUse">
<stop stop-color="#C1AA94"/>
<stop offset="1" stop-color="#C1AA94" stop-opacity="0"/>
</linearGradient>
<linearGradient id="paint2_linear_544_1240" x1="39.1375" y1="26.9736" x2="39.1375" y2="75.0322" gradientUnits="userSpaceOnUse">
<stop stop-color="#C1AA94"/>
<stop offset="1" stop-color="#C1AA94" stop-opacity="0"/>
</linearGradient>
<linearGradient id="paint3_linear_544_1240" x1="39.1414" y1="29.749" x2="39.1414" y2="75.0307" gradientUnits="userSpaceOnUse">
<stop stop-color="#C1AA94"/>
<stop offset="1" stop-color="#C1AA94" stop-opacity="0"/>
</linearGradient>
<linearGradient id="paint4_linear_544_1240" x1="39.14" y1="32.5273" x2="39.14" y2="75.0336" gradientUnits="userSpaceOnUse">
<stop stop-color="#C1AA94"/>
<stop offset="1" stop-color="#C1AA94" stop-opacity="0"/>
</linearGradient>
<linearGradient id="paint5_linear_544_1240" x1="39.1386" y1="35.3027" x2="39.1386" y2="75.0322" gradientUnits="userSpaceOnUse">
<stop stop-color="#C1AA94"/>
<stop offset="1" stop-color="#C1AA94" stop-opacity="0"/>
</linearGradient>
<linearGradient id="paint6_linear_544_1240" x1="39.1464" y1="38.0781" x2="39.1464" y2="75.0308" gradientUnits="userSpaceOnUse">
<stop stop-color="#C1AA94"/>
<stop offset="1" stop-color="#C1AA94" stop-opacity="0"/>
</linearGradient>
<linearGradient id="paint7_linear_544_1240" x1="39.1411" y1="40.8545" x2="39.1411" y2="75.0317" gradientUnits="userSpaceOnUse">
<stop stop-color="#C1AA94"/>
<stop offset="1" stop-color="#C1AA94" stop-opacity="0"/>
</linearGradient>
<linearGradient id="paint8_linear_544_1240" x1="39.1397" y1="43.6318" x2="39.1397" y2="75.0322" gradientUnits="userSpaceOnUse">
<stop stop-color="#C1AA94"/>
<stop offset="1" stop-color="#C1AA94" stop-opacity="0"/>
</linearGradient>
<linearGradient id="paint9_linear_544_1240" x1="39.1397" y1="46.4082" x2="39.1397" y2="75.0318" gradientUnits="userSpaceOnUse">
<stop stop-color="#C1AA94"/>
<stop offset="1" stop-color="#C1AA94" stop-opacity="0"/>
</linearGradient>
<linearGradient id="paint10_linear_544_1240" x1="39.1383" y1="49.1846" x2="39.1383" y2="75.0327" gradientUnits="userSpaceOnUse">
<stop stop-color="#C1AA94"/>
<stop offset="1" stop-color="#C1AA94" stop-opacity="0"/>
</linearGradient>
<linearGradient id="paint11_linear_544_1240" x1="39.1368" y1="51.9619" x2="39.1368" y2="75.0332" gradientUnits="userSpaceOnUse">
<stop stop-color="#C1AA94"/>
<stop offset="1" stop-color="#C1AA94" stop-opacity="0"/>
</linearGradient>
<linearGradient id="paint12_linear_544_1240" x1="39.1368" y1="54.7354" x2="39.1368" y2="75.0299" gradientUnits="userSpaceOnUse">
<stop stop-color="#C1AA94"/>
<stop offset="1" stop-color="#C1AA94" stop-opacity="0"/>
</linearGradient>
</defs>
</svg>
