<svg width="80" height="92" viewBox="0 0 80 92" fill="none" xmlns="http://www.w3.org/2000/svg">
<path d="M40.1435 7.83105C18.2153 7.83105 0.375 25.7109 0.375 47.6877V91.0745H1.32049V47.6877C1.32049 26.2323 18.7367 8.77748 40.1447 8.77748C61.5526 8.77748 78.9689 26.2323 78.9689 47.6877V91.0745H79.9144V47.6877C79.9144 25.7109 62.074 7.83105 40.1458 7.83105H40.1435Z" fill="url(#paint0_linear_544_1178)"/>
<path d="M40.1431 10.748C19.8197 10.748 3.28516 27.3192 3.28516 47.6876V91.0744H4.23065V47.6876C4.23065 27.8417 20.3411 11.6956 40.1442 11.6956C59.9474 11.6956 76.0566 27.8417 76.0566 47.6876V91.0744H77.0021V47.6876C77.0021 27.3192 60.4676 10.748 40.1442 10.748H40.1431Z" fill="url(#paint1_linear_544_1178)"/>
<path d="M40.1426 13.667C21.424 13.667 6.19531 28.9294 6.19531 47.6895V91.0763H7.1408V47.6895C7.1408 29.4519 21.9454 14.6146 40.1426 14.6146C58.3398 14.6146 73.1444 29.4519 73.1444 47.6895V91.0763H74.0899V47.6895C74.0899 28.9294 58.8612 13.667 40.1426 13.667Z" fill="url(#paint2_linear_544_1178)"/>
<path d="M40.1421 16.584C23.0283 16.584 9.10547 30.5376 9.10547 47.6894V91.0762H10.051V47.6894C10.051 31.0602 23.5497 17.5316 40.1421 17.5316C56.7346 17.5316 70.2333 31.0602 70.2333 47.6894V91.0762H71.1788V47.6894C71.1788 30.5376 57.256 16.584 40.1421 16.584Z" fill="url(#paint3_linear_544_1178)"/>
<path d="M40.1456 19.5C24.6377 19.5 12.0195 32.1449 12.0195 47.6883V91.0752H12.965V47.6883C12.965 32.6675 25.1579 20.4476 40.1456 20.4476C55.1332 20.4476 67.3261 32.6675 67.3261 47.6883V91.0752H68.2716V47.6883C68.2716 32.1461 55.6546 19.5 40.1467 19.5H40.1456Z" fill="url(#paint4_linear_544_1178)"/>
<path d="M40.1439 22.417C26.2408 22.417 14.9297 33.7532 14.9297 47.6871V91.0739H15.8752V47.6871C15.8752 34.2746 26.7622 23.3634 40.1451 23.3634C53.5279 23.3634 64.415 34.2746 64.415 47.6871V91.0739H65.3605V47.6871C65.3605 33.7532 54.0494 22.417 40.1462 22.417H40.1439Z" fill="url(#paint5_linear_544_1178)"/>
<path d="M40.1435 25.335C27.8451 25.335 17.8398 35.3624 17.8398 47.688V91.0748H18.7853V47.688C18.7853 35.885 28.3665 26.2814 40.1446 26.2814C51.9227 26.2814 61.5039 35.8838 61.5039 47.688V91.0748H62.4494V47.688C62.4494 35.3624 52.4441 25.335 40.1458 25.335H40.1435Z" fill="url(#paint6_linear_544_1178)"/>
<path d="M40.143 28.2529C29.4494 28.2529 20.75 36.9716 20.75 47.6889V91.0757H21.6955V47.6889C21.6955 37.4942 29.9708 29.2005 40.1441 29.2005C50.3174 29.2005 58.5916 37.4942 58.5916 47.6889V91.0757H59.5371V47.6889C59.5371 36.9716 50.8377 28.2529 40.1441 28.2529H40.143Z" fill="url(#paint7_linear_544_1178)"/>
<path d="M40.1425 31.1699C31.0538 31.1699 23.6602 38.5799 23.6602 47.6888V91.0756H24.6056V47.6888C24.6056 39.1025 31.5752 32.1175 40.1425 32.1175C48.7099 32.1175 55.6794 39.1025 55.6794 47.6888V91.0756H56.6249V47.6888C56.6249 38.5799 49.2313 31.1699 40.1425 31.1699Z" fill="url(#paint8_linear_544_1178)"/>
<path d="M40.142 34.0869C32.6592 34.0869 26.5703 40.1881 26.5703 47.6887V91.0755H27.5158V47.6887C27.5158 40.7107 33.1795 35.0345 40.142 35.0345C47.1046 35.0345 52.7683 40.7107 52.7683 47.6887V91.0755H53.7138V47.6887C53.7138 40.1893 47.626 34.0869 40.142 34.0869Z" fill="url(#paint9_linear_544_1178)"/>
<path d="M40.1416 37.0039C34.2635 37.0039 29.4805 41.7964 29.4805 47.6875V91.0743H30.426V47.6875C30.426 42.319 34.7838 37.9503 40.1416 37.9503C45.4993 37.9503 49.8572 42.3178 49.8572 47.6875V91.0743H50.8027V47.6875C50.8027 41.7964 46.0208 37.0039 40.1427 37.0039H40.1416Z" fill="url(#paint10_linear_544_1178)"/>
<path d="M40.1438 39.9209C35.8706 39.9209 32.3945 43.4047 32.3945 47.6874V91.0742H33.34V47.6874C33.34 43.9272 36.392 40.8673 40.145 40.8673C43.898 40.8673 46.95 43.9261 46.95 47.6874V91.0742H47.8955V47.6874C47.8955 43.4047 44.4194 39.9209 40.1462 39.9209H40.1438Z" fill="url(#paint11_linear_544_1178)"/>
<path d="M40.1434 42.8379C37.4749 42.8379 35.3047 45.0129 35.3047 47.6873V91.0741H36.2502V47.6873C36.2502 45.5355 37.9975 43.7843 40.1445 43.7843C42.2916 43.7843 44.0377 45.5355 44.0377 47.6873V91.0741H44.9832V47.6873C44.9832 45.0129 42.813 42.8379 40.1445 42.8379H40.1434Z" fill="url(#paint12_linear_544_1178)"/>
<path d="M39.8032 31.2938C56.9065 31.2938 70.8213 17.3482 70.8213 0.207031H8.78516C8.78516 17.3482 22.6999 31.2938 39.8032 31.2938Z" fill="#13363A"/>
<path d="M49.412 79.7828C55.0078 74.1992 55.0078 65.1465 49.412 59.5629C43.8162 53.9794 34.7436 53.9794 29.1478 59.5629C23.5519 65.1465 23.5519 74.1992 29.1478 79.7828C34.7436 85.3663 43.8162 85.3663 49.412 79.7828Z" fill="#E0C6B2"/>
<defs>
<linearGradient id="paint0_linear_544_1178" x1="40.1447" y1="7.83105" x2="40.1447" y2="91.0745" gradientUnits="userSpaceOnUse">
<stop stop-color="#C1AA94"/>
<stop offset="1" stop-color="#C1AA94" stop-opacity="0"/>
</linearGradient>
<linearGradient id="paint1_linear_544_1178" x1="40.1436" y1="10.748" x2="40.1436" y2="91.0744" gradientUnits="userSpaceOnUse">
<stop stop-color="#C1AA94"/>
<stop offset="1" stop-color="#C1AA94" stop-opacity="0"/>
</linearGradient>
<linearGradient id="paint2_linear_544_1178" x1="40.1426" y1="13.667" x2="40.1426" y2="91.0763" gradientUnits="userSpaceOnUse">
<stop stop-color="#C1AA94"/>
<stop offset="1" stop-color="#C1AA94" stop-opacity="0"/>
</linearGradient>
<linearGradient id="paint3_linear_544_1178" x1="40.1421" y1="16.584" x2="40.1421" y2="91.0762" gradientUnits="userSpaceOnUse">
<stop stop-color="#C1AA94"/>
<stop offset="1" stop-color="#C1AA94" stop-opacity="0"/>
</linearGradient>
<linearGradient id="paint4_linear_544_1178" x1="40.1456" y1="19.5" x2="40.1456" y2="91.0752" gradientUnits="userSpaceOnUse">
<stop stop-color="#C1AA94"/>
<stop offset="1" stop-color="#C1AA94" stop-opacity="0"/>
</linearGradient>
<linearGradient id="paint5_linear_544_1178" x1="40.1451" y1="22.417" x2="40.1451" y2="91.0739" gradientUnits="userSpaceOnUse">
<stop stop-color="#C1AA94"/>
<stop offset="1" stop-color="#C1AA94" stop-opacity="0"/>
</linearGradient>
<linearGradient id="paint6_linear_544_1178" x1="40.1446" y1="25.335" x2="40.1446" y2="91.0748" gradientUnits="userSpaceOnUse">
<stop stop-color="#C1AA94"/>
<stop offset="1" stop-color="#C1AA94" stop-opacity="0"/>
</linearGradient>
<linearGradient id="paint7_linear_544_1178" x1="40.1436" y1="28.2529" x2="40.1436" y2="91.0757" gradientUnits="userSpaceOnUse">
<stop stop-color="#C1AA94"/>
<stop offset="1" stop-color="#C1AA94" stop-opacity="0"/>
</linearGradient>
<linearGradient id="paint8_linear_544_1178" x1="40.1425" y1="31.1699" x2="40.1425" y2="91.0756" gradientUnits="userSpaceOnUse">
<stop stop-color="#C1AA94"/>
<stop offset="1" stop-color="#C1AA94" stop-opacity="0"/>
</linearGradient>
<linearGradient id="paint9_linear_544_1178" x1="40.142" y1="34.0869" x2="40.142" y2="91.0755" gradientUnits="userSpaceOnUse">
<stop stop-color="#C1AA94"/>
<stop offset="1" stop-color="#C1AA94" stop-opacity="0"/>
</linearGradient>
<linearGradient id="paint10_linear_544_1178" x1="40.1416" y1="37.0039" x2="40.1416" y2="91.0743" gradientUnits="userSpaceOnUse">
<stop stop-color="#C1AA94"/>
<stop offset="1" stop-color="#C1AA94" stop-opacity="0"/>
</linearGradient>
<linearGradient id="paint11_linear_544_1178" x1="40.145" y1="39.9209" x2="40.145" y2="91.0742" gradientUnits="userSpaceOnUse">
<stop stop-color="#C1AA94"/>
<stop offset="1" stop-color="#C1AA94" stop-opacity="0"/>
</linearGradient>
<linearGradient id="paint12_linear_544_1178" x1="40.144" y1="42.8379" x2="40.144" y2="91.0741" gradientUnits="userSpaceOnUse">
<stop stop-color="#C1AA94"/>
<stop offset="1" stop-color="#C1AA94" stop-opacity="0"/>
</linearGradient>
</defs>
</svg>
