<svg width="88" height="109" viewBox="0 0 88 109" fill="none" xmlns="http://www.w3.org/2000/svg">
<path d="M54.2566 33.4719C60.2467 27.4819 60.2467 17.7701 54.2566 11.78C48.2665 5.78997 38.5548 5.78997 32.5647 11.78C26.5746 17.7701 26.5746 27.4819 32.5647 33.4719C38.5548 39.462 48.2665 39.462 54.2566 33.4719Z" fill="#E0C6B2"/>
<path d="M43.2852 66.1357C60.0703 66.1357 73.6758 52.5291 73.6758 35.7451H12.8945C12.8945 52.5302 26.5012 66.1357 43.2852 66.1357Z" fill="#13363A"/>
<path d="M43.8427 47.4863C19.8269 47.4863 0.289062 67.0258 0.289062 91.0416V108.91H1.51367V91.0416C1.51367 67.7004 20.5031 48.7109 43.8443 48.7109C67.1855 48.7109 86.1749 67.7004 86.1749 91.0416V108.91H87.3996V91.0416C87.3996 67.0258 67.8617 47.4879 43.8459 47.4879L43.8427 47.4863Z" fill="url(#paint0_linear_544_1207)"/>
<path d="M43.8426 50.668C21.5805 50.668 3.46875 68.7798 3.46875 91.0418V108.911H4.69336V91.0418C4.69336 69.4544 22.2552 51.8926 43.8426 51.8926C65.4299 51.8926 82.9918 69.4544 82.9918 91.0418V108.911H84.2164V91.0418C84.2164 68.7798 66.1046 50.668 43.8426 50.668Z" fill="url(#paint1_linear_544_1207)"/>
<path d="M43.8447 53.8486C23.3365 53.8486 6.65234 70.5328 6.65234 91.041V108.91H7.87696V91.041C7.87696 71.2074 24.0127 55.0732 43.8447 55.0732C63.6767 55.0732 79.8125 71.209 79.8125 91.041V108.91H81.0371V91.041C81.0371 70.5328 64.353 53.8486 43.8447 53.8486Z" fill="url(#paint2_linear_544_1207)"/>
<path d="M43.8469 57.0293C25.0924 57.0293 9.83594 72.2874 9.83594 91.0403V108.909H11.0605V91.0403C11.0605 72.9604 25.7687 58.2523 43.8485 58.2523C61.9283 58.2523 76.6364 72.9604 76.6364 91.0403V108.909H77.861V91.0403C77.861 72.2858 62.6029 57.0293 43.8501 57.0293H43.8469Z" fill="url(#paint3_linear_544_1207)"/>
<path d="M43.8428 60.2119C26.8422 60.2119 13.0117 74.0423 13.0117 91.043V108.912H14.2363V91.043C14.2363 74.7186 27.5184 61.4365 43.8428 61.4365C60.1673 61.4365 73.4493 74.7186 73.4493 91.043V108.912H74.674V91.043C74.674 74.0423 60.8435 60.2119 43.8428 60.2119Z" fill="url(#paint4_linear_544_1207)"/>
<path d="M43.845 63.3926C28.5981 63.3926 16.1953 75.797 16.1953 91.0423V108.911H17.4199V91.0423C17.4199 76.4716 29.2744 64.6172 43.845 64.6172C58.4156 64.6172 70.2701 76.4716 70.2701 91.0423V108.911H71.4947V91.0423C71.4947 75.7954 59.0903 63.3926 43.845 63.3926Z" fill="url(#paint5_linear_544_1207)"/>
<path d="M43.8432 66.5713C30.3517 66.5713 19.375 77.548 19.375 91.0395V108.908H20.5996V91.0395C20.5996 78.2227 31.0264 67.7943 43.8448 67.7943C56.6633 67.7943 67.0901 78.2211 67.0901 91.0395V108.908H68.3147V91.0395C68.3147 77.548 57.338 66.5713 43.8464 66.5713H43.8432Z" fill="url(#paint6_linear_544_1207)"/>
<path d="M43.8392 69.7529C32.1015 69.7529 22.5508 79.302 22.5508 91.0413V108.91H23.7754V91.0413C23.7754 79.9783 32.7761 70.9775 43.8392 70.9775C54.9023 70.9775 63.903 79.9783 63.903 91.0413V108.91H65.1276V91.0413C65.1276 79.3036 55.5785 69.7529 43.8392 69.7529Z" fill="url(#paint7_linear_544_1207)"/>
<path d="M43.8375 72.9336C33.8535 72.9336 25.7305 81.0566 25.7305 91.0406V108.909H26.9551V91.0406C26.9551 81.7313 34.5282 74.1582 43.8375 74.1582C53.1467 74.1582 60.7198 81.7313 60.7198 91.0406V108.909H61.9444V91.0406C61.9444 81.0566 53.8214 72.9336 43.8375 72.9336Z" fill="url(#paint8_linear_544_1207)"/>
<path d="M43.8435 76.1152C35.6134 76.1152 28.918 82.8106 28.918 91.0408V108.91H30.1426V91.0408C30.1426 83.4853 36.2896 77.3383 43.8451 77.3383C51.4006 77.3383 57.5477 83.4853 57.5477 91.0408V108.91H58.7723V91.0408C58.7723 82.8106 52.0769 76.1152 43.8467 76.1152H43.8435Z" fill="url(#paint9_linear_544_1207)"/>
<path d="M43.8434 79.2959C37.367 79.2959 32.0977 84.5652 32.0977 91.0416V108.91H33.3223V91.0416C33.3223 85.2399 38.0417 80.5205 43.8434 80.5205C49.6451 80.5205 54.3645 85.2399 54.3645 91.0416V108.91H55.5891V91.0416C55.5891 84.5652 50.3197 79.2959 43.8434 79.2959Z" fill="url(#paint10_linear_544_1207)"/>
<path d="M43.8416 82.4775C39.119 82.4775 35.2773 86.3192 35.2773 91.0418V108.911H36.502V91.0418C36.502 86.9939 39.7953 83.7021 43.8416 83.7021C47.888 83.7021 51.1813 86.9955 51.1813 91.0418V108.911H52.4059V91.0418C52.4059 86.3192 48.5642 82.4775 43.8416 82.4775Z" fill="url(#paint11_linear_544_1207)"/>
<path d="M43.8438 85.6572C40.875 85.6572 38.4609 88.0729 38.4609 91.0401V108.909H39.6855V91.0401C39.6855 88.7459 41.5512 86.8802 43.8454 86.8802C46.1395 86.8802 48.0052 88.7459 48.0052 91.0401V108.909H49.2298V91.0401C49.2298 88.0713 46.8142 85.6572 43.847 85.6572H43.8438Z" fill="url(#paint12_linear_544_1207)"/>
<defs>
<linearGradient id="paint0_linear_544_1207" x1="43.8443" y1="47.4863" x2="43.8443" y2="108.91" gradientUnits="userSpaceOnUse">
<stop stop-color="#C1AA94"/>
<stop offset="1" stop-color="#C1AA94" stop-opacity="0"/>
</linearGradient>
<linearGradient id="paint1_linear_544_1207" x1="43.8426" y1="50.668" x2="43.8426" y2="108.911" gradientUnits="userSpaceOnUse">
<stop stop-color="#C1AA94"/>
<stop offset="1" stop-color="#C1AA94" stop-opacity="0"/>
</linearGradient>
<linearGradient id="paint2_linear_544_1207" x1="43.8447" y1="53.8486" x2="43.8447" y2="108.91" gradientUnits="userSpaceOnUse">
<stop stop-color="#C1AA94"/>
<stop offset="1" stop-color="#C1AA94" stop-opacity="0"/>
</linearGradient>
<linearGradient id="paint3_linear_544_1207" x1="43.8485" y1="57.0293" x2="43.8485" y2="108.909" gradientUnits="userSpaceOnUse">
<stop stop-color="#C1AA94"/>
<stop offset="1" stop-color="#C1AA94" stop-opacity="0"/>
</linearGradient>
<linearGradient id="paint4_linear_544_1207" x1="43.8428" y1="60.2119" x2="43.8428" y2="108.912" gradientUnits="userSpaceOnUse">
<stop stop-color="#C1AA94"/>
<stop offset="1" stop-color="#C1AA94" stop-opacity="0"/>
</linearGradient>
<linearGradient id="paint5_linear_544_1207" x1="43.845" y1="63.3926" x2="43.845" y2="108.911" gradientUnits="userSpaceOnUse">
<stop stop-color="#C1AA94"/>
<stop offset="1" stop-color="#C1AA94" stop-opacity="0"/>
</linearGradient>
<linearGradient id="paint6_linear_544_1207" x1="43.8448" y1="66.5713" x2="43.8448" y2="108.908" gradientUnits="userSpaceOnUse">
<stop stop-color="#C1AA94"/>
<stop offset="1" stop-color="#C1AA94" stop-opacity="0"/>
</linearGradient>
<linearGradient id="paint7_linear_544_1207" x1="43.8392" y1="69.7529" x2="43.8392" y2="108.91" gradientUnits="userSpaceOnUse">
<stop stop-color="#C1AA94"/>
<stop offset="1" stop-color="#C1AA94" stop-opacity="0"/>
</linearGradient>
<linearGradient id="paint8_linear_544_1207" x1="43.8375" y1="72.9336" x2="43.8375" y2="108.909" gradientUnits="userSpaceOnUse">
<stop stop-color="#C1AA94"/>
<stop offset="1" stop-color="#C1AA94" stop-opacity="0"/>
</linearGradient>
<linearGradient id="paint9_linear_544_1207" x1="43.8451" y1="76.1152" x2="43.8451" y2="108.91" gradientUnits="userSpaceOnUse">
<stop stop-color="#C1AA94"/>
<stop offset="1" stop-color="#C1AA94" stop-opacity="0"/>
</linearGradient>
<linearGradient id="paint10_linear_544_1207" x1="43.8434" y1="79.2959" x2="43.8434" y2="108.91" gradientUnits="userSpaceOnUse">
<stop stop-color="#C1AA94"/>
<stop offset="1" stop-color="#C1AA94" stop-opacity="0"/>
</linearGradient>
<linearGradient id="paint11_linear_544_1207" x1="43.8416" y1="82.4775" x2="43.8416" y2="108.911" gradientUnits="userSpaceOnUse">
<stop stop-color="#C1AA94"/>
<stop offset="1" stop-color="#C1AA94" stop-opacity="0"/>
</linearGradient>
<linearGradient id="paint12_linear_544_1207" x1="43.8454" y1="85.6572" x2="43.8454" y2="108.909" gradientUnits="userSpaceOnUse">
<stop stop-color="#C1AA94"/>
<stop offset="1" stop-color="#C1AA94" stop-opacity="0"/>
</linearGradient>
</defs>
</svg>
