<svg width="340" height="701" viewBox="0 0 340 701" fill="none" xmlns="http://www.w3.org/2000/svg">
<path d="M169.997 226.342C76.6989 226.342 0.793243 295.943 0.793243 381.493L0.793243 701H4.80826L4.80826 381.493C4.80826 297.971 78.9106 230.018 170.003 230.018C261.095 230.018 335.192 297.971 335.192 381.493L335.192 701H339.207L339.207 381.493C339.207 295.943 263.301 226.342 169.997 226.342Z" fill="url(#paint0_linear_898_12863)"/>
<path d="M169.451 238.428C83.7232 238.428 13.9787 302.552 13.9787 381.372L13.9787 701H17.9845L17.9845 381.372C17.9845 304.581 85.9298 242.111 169.451 242.111C252.973 242.111 320.918 304.581 320.918 381.372L320.918 701H324.924L324.924 381.372C324.924 302.552 255.179 238.428 169.451 238.428Z" fill="url(#paint1_linear_898_12863)"/>
<path d="M169.448 250.514C90.993 250.514 27.1631 309.159 27.1631 381.241L27.1631 701H31.1733L31.1733 381.241C31.1733 311.188 93.202 254.199 169.448 254.199C245.694 254.199 307.728 311.188 307.728 381.241L307.728 701H311.738L311.738 381.241C311.738 309.159 247.908 250.514 169.453 250.514H169.448Z" fill="url(#paint2_linear_898_12863)"/>
<path d="M169.444 262.6C98.257 262.6 40.3474 315.762 40.3474 381.102L40.3474 701H44.3631L44.3631 381.102C44.3631 317.787 100.475 266.281 169.45 266.281C238.425 266.281 294.537 317.787 294.537 381.102L294.537 701H298.553L298.553 381.102C298.553 315.757 240.637 262.6 169.456 262.6H169.444Z" fill="url(#paint3_linear_898_12863)"/>
<path d="M170.001 275.785C106.388 275.785 54.6325 323.337 54.6325 381.784L54.6325 701H58.6358L58.6358 381.784C58.6358 325.363 108.593 279.463 170.001 279.463C231.408 279.463 281.366 325.363 281.366 381.784L281.366 701H285.369L285.369 381.784C285.369 323.337 233.614 275.785 170.001 275.785Z" fill="url(#paint4_linear_898_12863)"/>
<path d="M170 287.871C113.659 287.871 67.8168 329.944 67.8168 381.653L67.8168 701H71.8262L71.8262 381.653C71.8262 331.971 115.867 291.551 170 291.551C224.133 291.551 268.174 331.971 268.174 381.653L268.174 701H272.184L272.184 381.653C272.184 329.944 226.342 287.871 170 287.871Z" fill="url(#paint5_linear_898_12863)"/>
<path d="M169.996 299.958C120.924 299.958 81.0031 336.542 81.0031 381.514L81.0031 701H85.0201L85.0201 381.514C85.0201 338.57 123.142 303.634 170.002 303.634C216.861 303.634 254.983 338.57 254.983 381.514L254.983 701H259L259 381.514C259 336.542 219.079 299.958 170.007 299.958H169.996Z" fill="url(#paint6_linear_898_12863)"/>
<path d="M169.451 312.044C127.953 312.044 94.1866 343.141 94.1866 381.37L94.1866 701H98.1851L98.1851 381.37C98.1851 345.175 130.155 315.727 169.451 315.727C208.746 315.727 240.716 345.175 240.716 381.37L240.716 701H244.715L244.715 381.37C244.715 343.146 210.954 312.044 169.451 312.044Z" fill="url(#paint7_linear_898_12863)"/>
<path d="M169.452 324.13C135.22 324.13 107.373 349.736 107.373 381.213L107.373 701H111.38L111.38 381.213C111.38 351.766 137.433 327.815 169.452 327.815C201.471 327.815 227.524 351.771 227.524 381.213L227.524 701H231.531L231.531 381.213C231.531 349.736 203.684 324.13 169.452 324.13Z" fill="url(#paint8_linear_898_12863)"/>
<path d="M169.446 336.216C142.489 336.216 120.557 356.327 120.557 381.046L120.557 701H124.578L124.578 381.046C124.578 358.358 144.709 339.898 169.452 339.898C194.194 339.898 214.325 358.358 214.325 381.046L214.325 701H218.346L218.346 381.046C218.346 356.327 196.414 336.216 169.457 336.216H169.446Z" fill="url(#paint9_linear_898_12863)"/>
<path d="M170 349.401C150.612 349.401 134.84 363.965 134.84 381.868L134.84 701H138.823L138.823 381.868C138.823 365.996 152.811 353.079 170 353.079C187.189 353.079 201.178 365.996 201.178 381.868L201.178 701H205.16L205.16 381.868C205.16 363.965 189.389 349.401 170 349.401Z" fill="url(#paint10_linear_898_12863)"/>
<path d="M170 361.487C157.883 361.487 148.025 370.56 148.025 381.712L148.025 701H152.022L152.022 381.712C152.022 372.587 160.085 365.166 170 365.166C179.914 365.166 187.977 372.587 187.977 381.712L187.977 701H191.975L191.975 381.712C191.975 370.56 182.116 361.487 170 361.487Z" fill="url(#paint11_linear_898_12863)"/>
<path d="M12.0929 108.112V181.97C12.0929 269.002 82.6847 339.555 169.765 339.555C256.84 339.549 327.432 269.002 327.432 181.97V108.112L169.765 158.285L12.0929 108.112Z" fill="url(#paint12_linear_898_12863)"/>
<path d="M169.774 139.431C208.298 139.431 239.528 108.218 239.528 69.7155C239.528 31.2127 208.298 0 169.774 0C131.25 0 100.02 31.2127 100.02 69.7155C100.02 108.218 131.25 139.431 169.774 139.431Z" fill="url(#paint13_linear_898_12863)"/>
<defs>
<linearGradient id="paint0_linear_898_12863" x1="170" y1="701" x2="170" y2="226.342" gradientUnits="userSpaceOnUse">
<stop stop-color="#C1AA94" stop-opacity="0"/>
<stop offset="1" stop-color="#C1AA94"/>
</linearGradient>
<linearGradient id="paint1_linear_898_12863" x1="169.451" y1="701" x2="169.451" y2="238.428" gradientUnits="userSpaceOnUse">
<stop stop-color="#C1AA94" stop-opacity="0"/>
<stop offset="1" stop-color="#C1AA94"/>
</linearGradient>
<linearGradient id="paint2_linear_898_12863" x1="169.451" y1="701" x2="169.451" y2="250.514" gradientUnits="userSpaceOnUse">
<stop stop-color="#C1AA94" stop-opacity="0"/>
<stop offset="1" stop-color="#C1AA94"/>
</linearGradient>
<linearGradient id="paint3_linear_898_12863" x1="169.45" y1="701" x2="169.45" y2="262.6" gradientUnits="userSpaceOnUse">
<stop stop-color="#C1AA94" stop-opacity="0"/>
<stop offset="1" stop-color="#C1AA94"/>
</linearGradient>
<linearGradient id="paint4_linear_898_12863" x1="170.001" y1="701" x2="170.001" y2="275.785" gradientUnits="userSpaceOnUse">
<stop stop-color="#C1AA94" stop-opacity="0"/>
<stop offset="1" stop-color="#C1AA94"/>
</linearGradient>
<linearGradient id="paint5_linear_898_12863" x1="170" y1="701" x2="170" y2="287.871" gradientUnits="userSpaceOnUse">
<stop stop-color="#C1AA94" stop-opacity="0"/>
<stop offset="1" stop-color="#C1AA94"/>
</linearGradient>
<linearGradient id="paint6_linear_898_12863" x1="170.002" y1="701" x2="170.002" y2="299.958" gradientUnits="userSpaceOnUse">
<stop stop-color="#C1AA94" stop-opacity="0"/>
<stop offset="1" stop-color="#C1AA94"/>
</linearGradient>
<linearGradient id="paint7_linear_898_12863" x1="169.451" y1="701" x2="169.451" y2="312.044" gradientUnits="userSpaceOnUse">
<stop stop-color="#C1AA94" stop-opacity="0"/>
<stop offset="1" stop-color="#C1AA94"/>
</linearGradient>
<linearGradient id="paint8_linear_898_12863" x1="169.452" y1="701" x2="169.452" y2="324.13" gradientUnits="userSpaceOnUse">
<stop stop-color="#C1AA94" stop-opacity="0"/>
<stop offset="1" stop-color="#C1AA94"/>
</linearGradient>
<linearGradient id="paint9_linear_898_12863" x1="169.452" y1="701" x2="169.452" y2="336.216" gradientUnits="userSpaceOnUse">
<stop stop-color="#C1AA94" stop-opacity="0"/>
<stop offset="1" stop-color="#C1AA94"/>
</linearGradient>
<linearGradient id="paint10_linear_898_12863" x1="170" y1="701" x2="170" y2="349.401" gradientUnits="userSpaceOnUse">
<stop stop-color="#C1AA94" stop-opacity="0"/>
<stop offset="1" stop-color="#C1AA94"/>
</linearGradient>
<linearGradient id="paint11_linear_898_12863" x1="170" y1="701" x2="170" y2="361.487" gradientUnits="userSpaceOnUse">
<stop stop-color="#C1AA94" stop-opacity="0"/>
<stop offset="1" stop-color="#C1AA94"/>
</linearGradient>
<linearGradient id="paint12_linear_898_12863" x1="169.762" y1="339.555" x2="169.762" y2="108.112" gradientUnits="userSpaceOnUse">
<stop stop-color="#D2EEF1"/>
<stop offset="0.270833" stop-color="#C6E2E5"/>
<stop offset="1" stop-color="#13363A"/>
</linearGradient>
<linearGradient id="paint13_linear_898_12863" x1="169.774" y1="0" x2="169.774" y2="139.431" gradientUnits="userSpaceOnUse">
<stop stop-color="#C1AA94"/>
<stop offset="1" stop-color="#CEC0B0"/>
</linearGradient>
</defs>
</svg>
